<?xml version="1.0" encoding="utf-8" standalone="no"?>
<!DOCTYPE svg PUBLIC "-//W3C//DTD SVG 1.1//EN"
  "http://www.w3.org/Graphics/SVG/1.1/DTD/svg11.dtd">
<svg xmlns:xlink="http://www.w3.org/1999/xlink" width="648pt" height="504pt" viewBox="0 0 648 504" xmlns="http://www.w3.org/2000/svg" version="1.1">
 <metadata>
  <rdf:RDF xmlns:dc="http://purl.org/dc/elements/1.1/" xmlns:cc="http://creativecommons.org/ns#" xmlns:rdf="http://www.w3.org/1999/02/22-rdf-syntax-ns#">
   <cc:Work>
    <dc:type rdf:resource="http://purl.org/dc/dcmitype/StillImage"/>
    <dc:date>2024-12-19T11:08:24.284244</dc:date>
    <dc:format>image/svg+xml</dc:format>
    <dc:creator>
     <cc:Agent>
      <dc:title>Matplotlib v3.5.3, https://matplotlib.org/</dc:title>
     </cc:Agent>
    </dc:creator>
   </cc:Work>
  </rdf:RDF>
 </metadata>
 <defs>
  <style type="text/css">*{stroke-linejoin: round; stroke-linecap: butt}</style>
 </defs>
 <g id="figure_1">
  <g id="patch_1">
   <path d="M 0 504 
L 648 504 
L 648 0 
L 0 0 
z
" style="fill: #ffffff"/>
  </g>
  <g id="axes_1">
   <g id="patch_2">
    <path d="M 113.4 448.56 
L 583.2 448.56 
L 583.2 60.48 
L 113.4 60.48 
z
" style="fill: #ffffff"/>
   </g>
   <g id="matplotlib.axis_1">
    <g id="xtick_1">
     <g id="line2d_1">
      <path d="M 113.4 448.56 
L 113.4 60.48 
" clip-path="url(#pf395d55cb8)" style="fill: none; stroke: #b0b0b0; stroke-width: 0.8; stroke-linecap: square"/>
     </g>
     <g id="line2d_2">
      <defs>
       <path id="m04256fd70b" d="M 0 0 
L 0 3.5 
" style="stroke: #000000; stroke-width: 0.8"/>
      </defs>
      <g>
       <use xlink:href="#m04256fd70b" x="113.4" y="448.56" style="stroke: #000000; stroke-width: 0.8"/>
      </g>
     </g>
     <g id="text_1">
      <!-- 0.0 -->
      <g transform="translate(92.143125 473.79625)scale(0.24 -0.24)">
       <defs>
        <path id="DejaVuSans-Bold-30" d="M 2944 2338 
Q 2944 3213 2780 3570 
Q 2616 3928 2228 3928 
Q 1841 3928 1675 3570 
Q 1509 3213 1509 2338 
Q 1509 1453 1675 1090 
Q 1841 728 2228 728 
Q 2613 728 2778 1090 
Q 2944 1453 2944 2338 
z
M 4147 2328 
Q 4147 1169 3647 539 
Q 3147 -91 2228 -91 
Q 1306 -91 806 539 
Q 306 1169 306 2328 
Q 306 3491 806 4120 
Q 1306 4750 2228 4750 
Q 3147 4750 3647 4120 
Q 4147 3491 4147 2328 
z
" transform="scale(0.015625)"/>
        <path id="DejaVuSans-Bold-2e" d="M 653 1209 
L 1778 1209 
L 1778 0 
L 653 0 
L 653 1209 
z
" transform="scale(0.015625)"/>
       </defs>
       <use xlink:href="#DejaVuSans-Bold-30"/>
       <use xlink:href="#DejaVuSans-Bold-2e" x="69.580078"/>
       <use xlink:href="#DejaVuSans-Bold-30" x="107.568359"/>
      </g>
     </g>
    </g>
    <g id="xtick_2">
     <g id="line2d_3">
      <path d="M 185.676923 448.56 
L 185.676923 60.48 
" clip-path="url(#pf395d55cb8)" style="fill: none; stroke: #b0b0b0; stroke-width: 0.8; stroke-linecap: square"/>
     </g>
     <g id="line2d_4">
      <g>
       <use xlink:href="#m04256fd70b" x="185.676923" y="448.56" style="stroke: #000000; stroke-width: 0.8"/>
      </g>
     </g>
     <g id="text_2">
      <!-- 0.1 -->
      <g transform="translate(164.420048 473.79625)scale(0.24 -0.24)">
       <defs>
        <path id="DejaVuSans-Bold-31" d="M 750 831 
L 1813 831 
L 1813 3847 
L 722 3622 
L 722 4441 
L 1806 4666 
L 2950 4666 
L 2950 831 
L 4013 831 
L 4013 0 
L 750 0 
L 750 831 
z
" transform="scale(0.015625)"/>
       </defs>
       <use xlink:href="#DejaVuSans-Bold-30"/>
       <use xlink:href="#DejaVuSans-Bold-2e" x="69.580078"/>
       <use xlink:href="#DejaVuSans-Bold-31" x="107.568359"/>
      </g>
     </g>
    </g>
    <g id="xtick_3">
     <g id="line2d_5">
      <path d="M 257.953846 448.56 
L 257.953846 60.48 
" clip-path="url(#pf395d55cb8)" style="fill: none; stroke: #b0b0b0; stroke-width: 0.8; stroke-linecap: square"/>
     </g>
     <g id="line2d_6">
      <g>
       <use xlink:href="#m04256fd70b" x="257.953846" y="448.56" style="stroke: #000000; stroke-width: 0.8"/>
      </g>
     </g>
     <g id="text_3">
      <!-- 0.2 -->
      <g transform="translate(236.696971 473.79625)scale(0.24 -0.24)">
       <defs>
        <path id="DejaVuSans-Bold-32" d="M 1844 884 
L 3897 884 
L 3897 0 
L 506 0 
L 506 884 
L 2209 2388 
Q 2438 2594 2547 2791 
Q 2656 2988 2656 3200 
Q 2656 3528 2436 3728 
Q 2216 3928 1850 3928 
Q 1569 3928 1234 3808 
Q 900 3688 519 3450 
L 519 4475 
Q 925 4609 1322 4679 
Q 1719 4750 2100 4750 
Q 2938 4750 3402 4381 
Q 3866 4013 3866 3353 
Q 3866 2972 3669 2642 
Q 3472 2313 2841 1759 
L 1844 884 
z
" transform="scale(0.015625)"/>
       </defs>
       <use xlink:href="#DejaVuSans-Bold-30"/>
       <use xlink:href="#DejaVuSans-Bold-2e" x="69.580078"/>
       <use xlink:href="#DejaVuSans-Bold-32" x="107.568359"/>
      </g>
     </g>
    </g>
    <g id="xtick_4">
     <g id="line2d_7">
      <path d="M 330.230769 448.56 
L 330.230769 60.48 
" clip-path="url(#pf395d55cb8)" style="fill: none; stroke: #b0b0b0; stroke-width: 0.8; stroke-linecap: square"/>
     </g>
     <g id="line2d_8">
      <g>
       <use xlink:href="#m04256fd70b" x="330.230769" y="448.56" style="stroke: #000000; stroke-width: 0.8"/>
      </g>
     </g>
     <g id="text_4">
      <!-- 0.3 -->
      <g transform="translate(308.973894 473.79625)scale(0.24 -0.24)">
       <defs>
        <path id="DejaVuSans-Bold-33" d="M 2981 2516 
Q 3453 2394 3698 2092 
Q 3944 1791 3944 1325 
Q 3944 631 3412 270 
Q 2881 -91 1863 -91 
Q 1503 -91 1142 -33 
Q 781 25 428 141 
L 428 1069 
Q 766 900 1098 814 
Q 1431 728 1753 728 
Q 2231 728 2486 893 
Q 2741 1059 2741 1369 
Q 2741 1688 2480 1852 
Q 2219 2016 1709 2016 
L 1228 2016 
L 1228 2791 
L 1734 2791 
Q 2188 2791 2409 2933 
Q 2631 3075 2631 3366 
Q 2631 3634 2415 3781 
Q 2200 3928 1806 3928 
Q 1516 3928 1219 3862 
Q 922 3797 628 3669 
L 628 4550 
Q 984 4650 1334 4700 
Q 1684 4750 2022 4750 
Q 2931 4750 3382 4451 
Q 3834 4153 3834 3553 
Q 3834 3144 3618 2883 
Q 3403 2622 2981 2516 
z
" transform="scale(0.015625)"/>
       </defs>
       <use xlink:href="#DejaVuSans-Bold-30"/>
       <use xlink:href="#DejaVuSans-Bold-2e" x="69.580078"/>
       <use xlink:href="#DejaVuSans-Bold-33" x="107.568359"/>
      </g>
     </g>
    </g>
    <g id="xtick_5">
     <g id="line2d_9">
      <path d="M 402.507692 448.56 
L 402.507692 60.48 
" clip-path="url(#pf395d55cb8)" style="fill: none; stroke: #b0b0b0; stroke-width: 0.8; stroke-linecap: square"/>
     </g>
     <g id="line2d_10">
      <g>
       <use xlink:href="#m04256fd70b" x="402.507692" y="448.56" style="stroke: #000000; stroke-width: 0.8"/>
      </g>
     </g>
     <g id="text_5">
      <!-- 0.4 -->
      <g transform="translate(381.250817 473.79625)scale(0.24 -0.24)">
       <defs>
        <path id="DejaVuSans-Bold-34" d="M 2356 3675 
L 1038 1722 
L 2356 1722 
L 2356 3675 
z
M 2156 4666 
L 3494 4666 
L 3494 1722 
L 4159 1722 
L 4159 850 
L 3494 850 
L 3494 0 
L 2356 0 
L 2356 850 
L 288 850 
L 288 1881 
L 2156 4666 
z
" transform="scale(0.015625)"/>
       </defs>
       <use xlink:href="#DejaVuSans-Bold-30"/>
       <use xlink:href="#DejaVuSans-Bold-2e" x="69.580078"/>
       <use xlink:href="#DejaVuSans-Bold-34" x="107.568359"/>
      </g>
     </g>
    </g>
    <g id="xtick_6">
     <g id="line2d_11">
      <path d="M 474.784615 448.56 
L 474.784615 60.48 
" clip-path="url(#pf395d55cb8)" style="fill: none; stroke: #b0b0b0; stroke-width: 0.8; stroke-linecap: square"/>
     </g>
     <g id="line2d_12">
      <g>
       <use xlink:href="#m04256fd70b" x="474.784615" y="448.56" style="stroke: #000000; stroke-width: 0.8"/>
      </g>
     </g>
     <g id="text_6">
      <!-- 0.5 -->
      <g transform="translate(453.52774 473.79625)scale(0.24 -0.24)">
       <defs>
        <path id="DejaVuSans-Bold-35" d="M 678 4666 
L 3669 4666 
L 3669 3781 
L 1638 3781 
L 1638 3059 
Q 1775 3097 1914 3117 
Q 2053 3138 2203 3138 
Q 3056 3138 3531 2711 
Q 4006 2284 4006 1522 
Q 4006 766 3489 337 
Q 2972 -91 2053 -91 
Q 1656 -91 1267 -14 
Q 878 63 494 219 
L 494 1166 
Q 875 947 1217 837 
Q 1559 728 1863 728 
Q 2300 728 2551 942 
Q 2803 1156 2803 1522 
Q 2803 1891 2551 2103 
Q 2300 2316 1863 2316 
Q 1603 2316 1309 2248 
Q 1016 2181 678 2041 
L 678 4666 
z
" transform="scale(0.015625)"/>
       </defs>
       <use xlink:href="#DejaVuSans-Bold-30"/>
       <use xlink:href="#DejaVuSans-Bold-2e" x="69.580078"/>
       <use xlink:href="#DejaVuSans-Bold-35" x="107.568359"/>
      </g>
     </g>
    </g>
    <g id="text_7">
     <!-- $\tau$ -->
     <g transform="translate(339.15 496.582812)scale(0.3 -0.3)">
      <defs>
       <path id="DejaVuSans-Oblique-3c4" d="M 2103 638 
Q 2188 488 2525 488 
L 2800 488 
L 2706 0 
L 2363 0 
Q 1800 0 1600 300 
Q 1403 606 1534 1269 
L 1856 2925 
L 541 2925 
L 653 3500 
L 3881 3500 
L 3769 2925 
L 2444 2925 
L 2113 1234 
Q 2025 781 2103 638 
z
" transform="scale(0.015625)"/>
      </defs>
      <use xlink:href="#DejaVuSans-Oblique-3c4" transform="translate(0 0.3125)"/>
     </g>
    </g>
   </g>
   <g id="matplotlib.axis_2">
    <g id="ytick_1">
     <g id="line2d_13">
      <path d="M 113.4 448.56 
L 583.2 448.56 
" clip-path="url(#pf395d55cb8)" style="fill: none; stroke: #b0b0b0; stroke-width: 0.8; stroke-linecap: square"/>
     </g>
     <g id="line2d_14">
      <defs>
       <path id="m839115434e" d="M 0 0 
L -3.5 0 
" style="stroke: #000000; stroke-width: 0.8"/>
      </defs>
      <g>
       <use xlink:href="#m839115434e" x="113.4" y="448.56" style="stroke: #000000; stroke-width: 0.8"/>
      </g>
     </g>
     <g id="text_8">
      <!-- 0.08 -->
      <g transform="translate(47.1875 457.678125)scale(0.24 -0.24)">
       <defs>
        <path id="DejaVuSans-Bold-38" d="M 2228 2088 
Q 1891 2088 1709 1903 
Q 1528 1719 1528 1375 
Q 1528 1031 1709 848 
Q 1891 666 2228 666 
Q 2563 666 2741 848 
Q 2919 1031 2919 1375 
Q 2919 1722 2741 1905 
Q 2563 2088 2228 2088 
z
M 1350 2484 
Q 925 2613 709 2878 
Q 494 3144 494 3541 
Q 494 4131 934 4440 
Q 1375 4750 2228 4750 
Q 3075 4750 3515 4442 
Q 3956 4134 3956 3541 
Q 3956 3144 3739 2878 
Q 3522 2613 3097 2484 
Q 3572 2353 3814 2058 
Q 4056 1763 4056 1313 
Q 4056 619 3595 264 
Q 3134 -91 2228 -91 
Q 1319 -91 855 264 
Q 391 619 391 1313 
Q 391 1763 633 2058 
Q 875 2353 1350 2484 
z
M 1631 3419 
Q 1631 3141 1786 2991 
Q 1941 2841 2228 2841 
Q 2509 2841 2662 2991 
Q 2816 3141 2816 3419 
Q 2816 3697 2662 3845 
Q 2509 3994 2228 3994 
Q 1941 3994 1786 3844 
Q 1631 3694 1631 3419 
z
" transform="scale(0.015625)"/>
       </defs>
       <use xlink:href="#DejaVuSans-Bold-30"/>
       <use xlink:href="#DejaVuSans-Bold-2e" x="69.580078"/>
       <use xlink:href="#DejaVuSans-Bold-30" x="107.568359"/>
       <use xlink:href="#DejaVuSans-Bold-38" x="177.148438"/>
      </g>
     </g>
    </g>
    <g id="ytick_2">
     <g id="line2d_15">
      <path d="M 113.4 418.730638 
L 583.2 418.730638 
" clip-path="url(#pf395d55cb8)" style="fill: none; stroke: #b0b0b0; stroke-width: 0.8; stroke-linecap: square"/>
     </g>
     <g id="line2d_16">
      <g>
       <use xlink:href="#m839115434e" x="113.4" y="418.730638" style="stroke: #000000; stroke-width: 0.8"/>
      </g>
     </g>
     <g id="text_9">
      <!-- 0.09 -->
      <g transform="translate(47.1875 427.848763)scale(0.24 -0.24)">
       <defs>
        <path id="DejaVuSans-Bold-39" d="M 641 103 
L 641 966 
Q 928 831 1190 764 
Q 1453 697 1709 697 
Q 2247 697 2547 995 
Q 2847 1294 2900 1881 
Q 2688 1725 2447 1647 
Q 2206 1569 1925 1569 
Q 1209 1569 770 1986 
Q 331 2403 331 3084 
Q 331 3838 820 4291 
Q 1309 4744 2131 4744 
Q 3044 4744 3544 4128 
Q 4044 3513 4044 2388 
Q 4044 1231 3459 570 
Q 2875 -91 1856 -91 
Q 1528 -91 1228 -42 
Q 928 6 641 103 
z
M 2125 2350 
Q 2441 2350 2600 2554 
Q 2759 2759 2759 3169 
Q 2759 3575 2600 3781 
Q 2441 3988 2125 3988 
Q 1809 3988 1650 3781 
Q 1491 3575 1491 3169 
Q 1491 2759 1650 2554 
Q 1809 2350 2125 2350 
z
" transform="scale(0.015625)"/>
       </defs>
       <use xlink:href="#DejaVuSans-Bold-30"/>
       <use xlink:href="#DejaVuSans-Bold-2e" x="69.580078"/>
       <use xlink:href="#DejaVuSans-Bold-30" x="107.568359"/>
       <use xlink:href="#DejaVuSans-Bold-39" x="177.148438"/>
      </g>
     </g>
    </g>
    <g id="ytick_3">
     <g id="line2d_17">
      <path d="M 113.4 388.901276 
L 583.2 388.901276 
" clip-path="url(#pf395d55cb8)" style="fill: none; stroke: #b0b0b0; stroke-width: 0.8; stroke-linecap: square"/>
     </g>
     <g id="line2d_18">
      <g>
       <use xlink:href="#m839115434e" x="113.4" y="388.901276" style="stroke: #000000; stroke-width: 0.8"/>
      </g>
     </g>
     <g id="text_10">
      <!-- 0.10 -->
      <g transform="translate(47.1875 398.019401)scale(0.24 -0.24)">
       <use xlink:href="#DejaVuSans-Bold-30"/>
       <use xlink:href="#DejaVuSans-Bold-2e" x="69.580078"/>
       <use xlink:href="#DejaVuSans-Bold-31" x="107.568359"/>
       <use xlink:href="#DejaVuSans-Bold-30" x="177.148438"/>
      </g>
     </g>
    </g>
    <g id="ytick_4">
     <g id="line2d_19">
      <path d="M 113.4 359.071914 
L 583.2 359.071914 
" clip-path="url(#pf395d55cb8)" style="fill: none; stroke: #b0b0b0; stroke-width: 0.8; stroke-linecap: square"/>
     </g>
     <g id="line2d_20">
      <g>
       <use xlink:href="#m839115434e" x="113.4" y="359.071914" style="stroke: #000000; stroke-width: 0.8"/>
      </g>
     </g>
     <g id="text_11">
      <!-- 0.11 -->
      <g transform="translate(47.1875 368.190039)scale(0.24 -0.24)">
       <use xlink:href="#DejaVuSans-Bold-30"/>
       <use xlink:href="#DejaVuSans-Bold-2e" x="69.580078"/>
       <use xlink:href="#DejaVuSans-Bold-31" x="107.568359"/>
       <use xlink:href="#DejaVuSans-Bold-31" x="177.148438"/>
      </g>
     </g>
    </g>
    <g id="ytick_5">
     <g id="line2d_21">
      <path d="M 113.4 329.242552 
L 583.2 329.242552 
" clip-path="url(#pf395d55cb8)" style="fill: none; stroke: #b0b0b0; stroke-width: 0.8; stroke-linecap: square"/>
     </g>
     <g id="line2d_22">
      <g>
       <use xlink:href="#m839115434e" x="113.4" y="329.242552" style="stroke: #000000; stroke-width: 0.8"/>
      </g>
     </g>
     <g id="text_12">
      <!-- 0.12 -->
      <g transform="translate(47.1875 338.360677)scale(0.24 -0.24)">
       <use xlink:href="#DejaVuSans-Bold-30"/>
       <use xlink:href="#DejaVuSans-Bold-2e" x="69.580078"/>
       <use xlink:href="#DejaVuSans-Bold-31" x="107.568359"/>
       <use xlink:href="#DejaVuSans-Bold-32" x="177.148438"/>
      </g>
     </g>
    </g>
    <g id="ytick_6">
     <g id="line2d_23">
      <path d="M 113.4 299.41319 
L 583.2 299.41319 
" clip-path="url(#pf395d55cb8)" style="fill: none; stroke: #b0b0b0; stroke-width: 0.8; stroke-linecap: square"/>
     </g>
     <g id="line2d_24">
      <g>
       <use xlink:href="#m839115434e" x="113.4" y="299.41319" style="stroke: #000000; stroke-width: 0.8"/>
      </g>
     </g>
     <g id="text_13">
      <!-- 0.13 -->
      <g transform="translate(47.1875 308.531315)scale(0.24 -0.24)">
       <use xlink:href="#DejaVuSans-Bold-30"/>
       <use xlink:href="#DejaVuSans-Bold-2e" x="69.580078"/>
       <use xlink:href="#DejaVuSans-Bold-31" x="107.568359"/>
       <use xlink:href="#DejaVuSans-Bold-33" x="177.148438"/>
      </g>
     </g>
    </g>
    <g id="ytick_7">
     <g id="line2d_25">
      <path d="M 113.4 269.583828 
L 583.2 269.583828 
" clip-path="url(#pf395d55cb8)" style="fill: none; stroke: #b0b0b0; stroke-width: 0.8; stroke-linecap: square"/>
     </g>
     <g id="line2d_26">
      <g>
       <use xlink:href="#m839115434e" x="113.4" y="269.583828" style="stroke: #000000; stroke-width: 0.8"/>
      </g>
     </g>
     <g id="text_14">
      <!-- 0.14 -->
      <g transform="translate(47.1875 278.701953)scale(0.24 -0.24)">
       <use xlink:href="#DejaVuSans-Bold-30"/>
       <use xlink:href="#DejaVuSans-Bold-2e" x="69.580078"/>
       <use xlink:href="#DejaVuSans-Bold-31" x="107.568359"/>
       <use xlink:href="#DejaVuSans-Bold-34" x="177.148438"/>
      </g>
     </g>
    </g>
    <g id="ytick_8">
     <g id="line2d_27">
      <path d="M 113.4 239.754466 
L 583.2 239.754466 
" clip-path="url(#pf395d55cb8)" style="fill: none; stroke: #b0b0b0; stroke-width: 0.8; stroke-linecap: square"/>
     </g>
     <g id="line2d_28">
      <g>
       <use xlink:href="#m839115434e" x="113.4" y="239.754466" style="stroke: #000000; stroke-width: 0.8"/>
      </g>
     </g>
     <g id="text_15">
      <!-- 0.15 -->
      <g transform="translate(47.1875 248.872591)scale(0.24 -0.24)">
       <use xlink:href="#DejaVuSans-Bold-30"/>
       <use xlink:href="#DejaVuSans-Bold-2e" x="69.580078"/>
       <use xlink:href="#DejaVuSans-Bold-31" x="107.568359"/>
       <use xlink:href="#DejaVuSans-Bold-35" x="177.148438"/>
      </g>
     </g>
    </g>
    <g id="ytick_9">
     <g id="line2d_29">
      <path d="M 113.4 209.925104 
L 583.2 209.925104 
" clip-path="url(#pf395d55cb8)" style="fill: none; stroke: #b0b0b0; stroke-width: 0.8; stroke-linecap: square"/>
     </g>
     <g id="line2d_30">
      <g>
       <use xlink:href="#m839115434e" x="113.4" y="209.925104" style="stroke: #000000; stroke-width: 0.8"/>
      </g>
     </g>
     <g id="text_16">
      <!-- 0.16 -->
      <g transform="translate(47.1875 219.043229)scale(0.24 -0.24)">
       <defs>
        <path id="DejaVuSans-Bold-36" d="M 2316 2303 
Q 2000 2303 1842 2098 
Q 1684 1894 1684 1484 
Q 1684 1075 1842 870 
Q 2000 666 2316 666 
Q 2634 666 2792 870 
Q 2950 1075 2950 1484 
Q 2950 1894 2792 2098 
Q 2634 2303 2316 2303 
z
M 3803 4544 
L 3803 3681 
Q 3506 3822 3243 3889 
Q 2981 3956 2731 3956 
Q 2194 3956 1894 3657 
Q 1594 3359 1544 2772 
Q 1750 2925 1990 3001 
Q 2231 3078 2516 3078 
Q 3231 3078 3670 2659 
Q 4109 2241 4109 1563 
Q 4109 813 3618 361 
Q 3128 -91 2303 -91 
Q 1394 -91 895 523 
Q 397 1138 397 2266 
Q 397 3422 980 4083 
Q 1563 4744 2578 4744 
Q 2900 4744 3203 4694 
Q 3506 4644 3803 4544 
z
" transform="scale(0.015625)"/>
       </defs>
       <use xlink:href="#DejaVuSans-Bold-30"/>
       <use xlink:href="#DejaVuSans-Bold-2e" x="69.580078"/>
       <use xlink:href="#DejaVuSans-Bold-31" x="107.568359"/>
       <use xlink:href="#DejaVuSans-Bold-36" x="177.148438"/>
      </g>
     </g>
    </g>
    <g id="ytick_10">
     <g id="line2d_31">
      <path d="M 113.4 180.095742 
L 583.2 180.095742 
" clip-path="url(#pf395d55cb8)" style="fill: none; stroke: #b0b0b0; stroke-width: 0.8; stroke-linecap: square"/>
     </g>
     <g id="line2d_32">
      <g>
       <use xlink:href="#m839115434e" x="113.4" y="180.095742" style="stroke: #000000; stroke-width: 0.8"/>
      </g>
     </g>
     <g id="text_17">
      <!-- 0.17 -->
      <g transform="translate(47.1875 189.213867)scale(0.24 -0.24)">
       <defs>
        <path id="DejaVuSans-Bold-37" d="M 428 4666 
L 3944 4666 
L 3944 3988 
L 2125 0 
L 953 0 
L 2675 3781 
L 428 3781 
L 428 4666 
z
" transform="scale(0.015625)"/>
       </defs>
       <use xlink:href="#DejaVuSans-Bold-30"/>
       <use xlink:href="#DejaVuSans-Bold-2e" x="69.580078"/>
       <use xlink:href="#DejaVuSans-Bold-31" x="107.568359"/>
       <use xlink:href="#DejaVuSans-Bold-37" x="177.148438"/>
      </g>
     </g>
    </g>
    <g id="ytick_11">
     <g id="line2d_33">
      <path d="M 113.4 150.26638 
L 583.2 150.26638 
" clip-path="url(#pf395d55cb8)" style="fill: none; stroke: #b0b0b0; stroke-width: 0.8; stroke-linecap: square"/>
     </g>
     <g id="line2d_34">
      <g>
       <use xlink:href="#m839115434e" x="113.4" y="150.26638" style="stroke: #000000; stroke-width: 0.8"/>
      </g>
     </g>
     <g id="text_18">
      <!-- 0.18 -->
      <g transform="translate(47.1875 159.384505)scale(0.24 -0.24)">
       <use xlink:href="#DejaVuSans-Bold-30"/>
       <use xlink:href="#DejaVuSans-Bold-2e" x="69.580078"/>
       <use xlink:href="#DejaVuSans-Bold-31" x="107.568359"/>
       <use xlink:href="#DejaVuSans-Bold-38" x="177.148438"/>
      </g>
     </g>
    </g>
    <g id="ytick_12">
     <g id="line2d_35">
      <path d="M 113.4 120.437018 
L 583.2 120.437018 
" clip-path="url(#pf395d55cb8)" style="fill: none; stroke: #b0b0b0; stroke-width: 0.8; stroke-linecap: square"/>
     </g>
     <g id="line2d_36">
      <g>
       <use xlink:href="#m839115434e" x="113.4" y="120.437018" style="stroke: #000000; stroke-width: 0.8"/>
      </g>
     </g>
     <g id="text_19">
      <!-- 0.19 -->
      <g transform="translate(47.1875 129.555143)scale(0.24 -0.24)">
       <use xlink:href="#DejaVuSans-Bold-30"/>
       <use xlink:href="#DejaVuSans-Bold-2e" x="69.580078"/>
       <use xlink:href="#DejaVuSans-Bold-31" x="107.568359"/>
       <use xlink:href="#DejaVuSans-Bold-39" x="177.148438"/>
      </g>
     </g>
    </g>
    <g id="ytick_13">
     <g id="line2d_37">
      <path d="M 113.4 90.607656 
L 583.2 90.607656 
" clip-path="url(#pf395d55cb8)" style="fill: none; stroke: #b0b0b0; stroke-width: 0.8; stroke-linecap: square"/>
     </g>
     <g id="line2d_38">
      <g>
       <use xlink:href="#m839115434e" x="113.4" y="90.607656" style="stroke: #000000; stroke-width: 0.8"/>
      </g>
     </g>
     <g id="text_20">
      <!-- 0.20 -->
      <g transform="translate(47.1875 99.725781)scale(0.24 -0.24)">
       <use xlink:href="#DejaVuSans-Bold-30"/>
       <use xlink:href="#DejaVuSans-Bold-2e" x="69.580078"/>
       <use xlink:href="#DejaVuSans-Bold-32" x="107.568359"/>
       <use xlink:href="#DejaVuSans-Bold-30" x="177.148438"/>
      </g>
     </g>
    </g>
    <g id="ytick_14">
     <g id="line2d_39">
      <path d="M 113.4 60.778294 
L 583.2 60.778294 
" clip-path="url(#pf395d55cb8)" style="fill: none; stroke: #b0b0b0; stroke-width: 0.8; stroke-linecap: square"/>
     </g>
     <g id="line2d_40">
      <g>
       <use xlink:href="#m839115434e" x="113.4" y="60.778294" style="stroke: #000000; stroke-width: 0.8"/>
      </g>
     </g>
     <g id="text_21">
      <!-- 0.21 -->
      <g transform="translate(47.1875 69.896419)scale(0.24 -0.24)">
       <use xlink:href="#DejaVuSans-Bold-30"/>
       <use xlink:href="#DejaVuSans-Bold-2e" x="69.580078"/>
       <use xlink:href="#DejaVuSans-Bold-32" x="107.568359"/>
       <use xlink:href="#DejaVuSans-Bold-31" x="177.148438"/>
      </g>
     </g>
    </g>
    <g id="text_22">
     <!-- Recall@10 -->
     <g transform="translate(36.364375 335.62375)rotate(-90)scale(0.28 -0.28)">
      <defs>
       <path id="DejaVuSans-Bold-52" d="M 2297 2597 
Q 2675 2597 2839 2737 
Q 3003 2878 3003 3200 
Q 3003 3519 2839 3656 
Q 2675 3794 2297 3794 
L 1791 3794 
L 1791 2597 
L 2297 2597 
z
M 1791 1766 
L 1791 0 
L 588 0 
L 588 4666 
L 2425 4666 
Q 3347 4666 3776 4356 
Q 4206 4047 4206 3378 
Q 4206 2916 3982 2619 
Q 3759 2322 3309 2181 
Q 3556 2125 3751 1926 
Q 3947 1728 4147 1325 
L 4800 0 
L 3519 0 
L 2950 1159 
Q 2778 1509 2601 1637 
Q 2425 1766 2131 1766 
L 1791 1766 
z
" transform="scale(0.015625)"/>
       <path id="DejaVuSans-Bold-65" d="M 4031 1759 
L 4031 1441 
L 1416 1441 
Q 1456 1047 1700 850 
Q 1944 653 2381 653 
Q 2734 653 3104 758 
Q 3475 863 3866 1075 
L 3866 213 
Q 3469 63 3072 -14 
Q 2675 -91 2278 -91 
Q 1328 -91 801 392 
Q 275 875 275 1747 
Q 275 2603 792 3093 
Q 1309 3584 2216 3584 
Q 3041 3584 3536 3087 
Q 4031 2591 4031 1759 
z
M 2881 2131 
Q 2881 2450 2695 2645 
Q 2509 2841 2209 2841 
Q 1884 2841 1681 2658 
Q 1478 2475 1428 2131 
L 2881 2131 
z
" transform="scale(0.015625)"/>
       <path id="DejaVuSans-Bold-63" d="M 3366 3391 
L 3366 2478 
Q 3138 2634 2908 2709 
Q 2678 2784 2431 2784 
Q 1963 2784 1702 2511 
Q 1441 2238 1441 1747 
Q 1441 1256 1702 982 
Q 1963 709 2431 709 
Q 2694 709 2930 787 
Q 3166 866 3366 1019 
L 3366 103 
Q 3103 6 2833 -42 
Q 2563 -91 2291 -91 
Q 1344 -91 809 395 
Q 275 881 275 1747 
Q 275 2613 809 3098 
Q 1344 3584 2291 3584 
Q 2566 3584 2833 3536 
Q 3100 3488 3366 3391 
z
" transform="scale(0.015625)"/>
       <path id="DejaVuSans-Bold-61" d="M 2106 1575 
Q 1756 1575 1579 1456 
Q 1403 1338 1403 1106 
Q 1403 894 1545 773 
Q 1688 653 1941 653 
Q 2256 653 2472 879 
Q 2688 1106 2688 1447 
L 2688 1575 
L 2106 1575 
z
M 3816 1997 
L 3816 0 
L 2688 0 
L 2688 519 
Q 2463 200 2181 54 
Q 1900 -91 1497 -91 
Q 953 -91 614 226 
Q 275 544 275 1050 
Q 275 1666 698 1953 
Q 1122 2241 2028 2241 
L 2688 2241 
L 2688 2328 
Q 2688 2594 2478 2717 
Q 2269 2841 1825 2841 
Q 1466 2841 1156 2769 
Q 847 2697 581 2553 
L 581 3406 
Q 941 3494 1303 3539 
Q 1666 3584 2028 3584 
Q 2975 3584 3395 3211 
Q 3816 2838 3816 1997 
z
" transform="scale(0.015625)"/>
       <path id="DejaVuSans-Bold-6c" d="M 538 4863 
L 1656 4863 
L 1656 0 
L 538 0 
L 538 4863 
z
" transform="scale(0.015625)"/>
       <path id="DejaVuSans-Bold-40" d="M 2597 1684 
Q 2597 1300 2761 1078 
Q 2925 856 3206 856 
Q 3484 856 3650 1079 
Q 3816 1303 3816 1684 
Q 3816 2063 3648 2283 
Q 3481 2503 3200 2503 
Q 2925 2503 2761 2283 
Q 2597 2063 2597 1684 
z
M 3878 744 
Q 3784 522 3576 398 
Q 3369 275 3091 275 
Q 2553 275 2217 664 
Q 1881 1053 1881 1678 
Q 1881 2303 2218 2693 
Q 2556 3084 3091 3084 
Q 3369 3084 3576 2959 
Q 3784 2834 3878 2613 
L 3878 3022 
L 4531 3022 
L 4531 856 
Q 4919 916 5141 1230 
Q 5363 1544 5363 2034 
Q 5363 2347 5272 2620 
Q 5181 2894 4997 3122 
Q 4700 3503 4254 3709 
Q 3809 3916 3291 3916 
Q 2928 3916 2597 3820 
Q 2266 3725 1984 3541 
Q 1522 3234 1264 2748 
Q 1006 2263 1006 1697 
Q 1006 1231 1173 823 
Q 1341 416 1656 103 
Q 1969 -203 2373 -364 
Q 2778 -525 3238 -525 
Q 3631 -525 4025 -378 
Q 4419 -231 4697 19 
L 5031 -488 
Q 4641 -791 4180 -952 
Q 3719 -1113 3244 -1113 
Q 2666 -1113 2153 -908 
Q 1641 -703 1241 -313 
Q 841 78 631 592 
Q 422 1106 422 1697 
Q 422 2266 634 2781 
Q 847 3297 1241 3688 
Q 1634 4075 2157 4287 
Q 2681 4500 3244 4500 
Q 3944 4500 4516 4233 
Q 5088 3966 5472 3463 
Q 5706 3156 5826 2798 
Q 5947 2441 5947 2047 
Q 5947 1200 5437 731 
Q 4928 263 4000 263 
L 3878 263 
L 3878 744 
z
" transform="scale(0.015625)"/>
      </defs>
      <use xlink:href="#DejaVuSans-Bold-52"/>
      <use xlink:href="#DejaVuSans-Bold-65" x="77.001953"/>
      <use xlink:href="#DejaVuSans-Bold-63" x="144.824219"/>
      <use xlink:href="#DejaVuSans-Bold-61" x="204.101562"/>
      <use xlink:href="#DejaVuSans-Bold-6c" x="271.582031"/>
      <use xlink:href="#DejaVuSans-Bold-6c" x="305.859375"/>
      <use xlink:href="#DejaVuSans-Bold-40" x="340.136719"/>
      <use xlink:href="#DejaVuSans-Bold-31" x="440.136719"/>
      <use xlink:href="#DejaVuSans-Bold-30" x="509.716797"/>
     </g>
    </g>
   </g>
   <g id="line2d_41">
    <path d="M 185.676923 107.013805 
L 257.953846 97.766703 
L 330.230769 95.08206 
L 402.507692 90.309362 
L 474.784615 103.732575 
" clip-path="url(#pf395d55cb8)" style="fill: none; stroke: #1f77b4; stroke-width: 3; stroke-linecap: square"/>
    <defs>
     <path id="me15b67c990" d="M 0 5 
C 1.326016 5 2.597899 4.473168 3.535534 3.535534 
C 4.473168 2.597899 5 1.326016 5 0 
C 5 -1.326016 4.473168 -2.597899 3.535534 -3.535534 
C 2.597899 -4.473168 1.326016 -5 0 -5 
C -1.326016 -5 -2.597899 -4.473168 -3.535534 -3.535534 
C -4.473168 -2.597899 -5 -1.326016 -5 0 
C -5 1.326016 -4.473168 2.597899 -3.535534 3.535534 
C -2.597899 4.473168 -1.326016 5 0 5 
z
" style="stroke: #1f77b4"/>
    </defs>
    <g clip-path="url(#pf395d55cb8)">
     <use xlink:href="#me15b67c990" x="185.676923" y="107.013805" style="fill: #1f77b4; stroke: #1f77b4"/>
     <use xlink:href="#me15b67c990" x="257.953846" y="97.766703" style="fill: #1f77b4; stroke: #1f77b4"/>
     <use xlink:href="#me15b67c990" x="330.230769" y="95.08206" style="fill: #1f77b4; stroke: #1f77b4"/>
     <use xlink:href="#me15b67c990" x="402.507692" y="90.309362" style="fill: #1f77b4; stroke: #1f77b4"/>
     <use xlink:href="#me15b67c990" x="474.784615" y="103.732575" style="fill: #1f77b4; stroke: #1f77b4"/>
    </g>
   </g>
   <g id="line2d_42">
    <path d="M 185.676923 349.526518 
L 257.953846 327.154497 
L 330.230769 415.449408 
L 402.507692 416.940876 
L 474.784615 424.994804 
" clip-path="url(#pf395d55cb8)" style="fill: none; stroke: #ff7f0e; stroke-width: 3; stroke-linecap: square"/>
    <defs>
     <path id="md1093217a9" d="M 0 -5 
L -1.12257 -1.545085 
L -4.755283 -1.545085 
L -1.816356 0.59017 
L -2.938926 4.045085 
L -0 1.90983 
L 2.938926 4.045085 
L 1.816356 0.59017 
L 4.755283 -1.545085 
L 1.12257 -1.545085 
z
" style="stroke: #ff7f0e; stroke-linejoin: bevel"/>
    </defs>
    <g clip-path="url(#pf395d55cb8)">
     <use xlink:href="#md1093217a9" x="185.676923" y="349.526518" style="fill: #ff7f0e; stroke: #ff7f0e; stroke-linejoin: bevel"/>
     <use xlink:href="#md1093217a9" x="257.953846" y="327.154497" style="fill: #ff7f0e; stroke: #ff7f0e; stroke-linejoin: bevel"/>
     <use xlink:href="#md1093217a9" x="330.230769" y="415.449408" style="fill: #ff7f0e; stroke: #ff7f0e; stroke-linejoin: bevel"/>
     <use xlink:href="#md1093217a9" x="402.507692" y="416.940876" style="fill: #ff7f0e; stroke: #ff7f0e; stroke-linejoin: bevel"/>
     <use xlink:href="#md1093217a9" x="474.784615" y="424.994804" style="fill: #ff7f0e; stroke: #ff7f0e; stroke-linejoin: bevel"/>
    </g>
   </g>
   <g id="line2d_43">
    <path d="M 185.676923 361.756556 
L 257.953846 358.475327 
L 330.230769 376.07465 
L 402.507692 417.537463 
L 474.784615 421.415281 
" clip-path="url(#pf395d55cb8)" style="fill: none; stroke: #2ca02c; stroke-width: 3; stroke-linecap: square"/>
    <defs>
     <path id="mb0371a6628" d="M -5 5 
L 5 5 
L 5 -5 
L -5 -5 
z
" style="stroke: #2ca02c; stroke-linejoin: miter"/>
    </defs>
    <g clip-path="url(#pf395d55cb8)">
     <use xlink:href="#mb0371a6628" x="185.676923" y="361.756556" style="fill: #2ca02c; stroke: #2ca02c; stroke-linejoin: miter"/>
     <use xlink:href="#mb0371a6628" x="257.953846" y="358.475327" style="fill: #2ca02c; stroke: #2ca02c; stroke-linejoin: miter"/>
     <use xlink:href="#mb0371a6628" x="330.230769" y="376.07465" style="fill: #2ca02c; stroke: #2ca02c; stroke-linejoin: miter"/>
     <use xlink:href="#mb0371a6628" x="402.507692" y="417.537463" style="fill: #2ca02c; stroke: #2ca02c; stroke-linejoin: miter"/>
     <use xlink:href="#mb0371a6628" x="474.784615" y="421.415281" style="fill: #2ca02c; stroke: #2ca02c; stroke-linejoin: miter"/>
    </g>
   </g>
   <g id="line2d_44">
    <path d="M 185.676923 103.135988 
L 257.953846 75.991268 
L 330.230769 128.192652 
L 402.507692 151.757848 
L 474.784615 178.902567 
" clip-path="url(#pf395d55cb8)" style="fill: none; stroke: #d62728; stroke-width: 3; stroke-linecap: square"/>
    <defs>
     <path id="m478149b6b0" d="M 0 -5 
L -4.755283 -1.545085 
L -2.938926 4.045085 
L 2.938926 4.045085 
L 4.755283 -1.545085 
z
" style="stroke: #d62728; stroke-linejoin: miter"/>
    </defs>
    <g clip-path="url(#pf395d55cb8)">
     <use xlink:href="#m478149b6b0" x="185.676923" y="103.135988" style="fill: #d62728; stroke: #d62728; stroke-linejoin: miter"/>
     <use xlink:href="#m478149b6b0" x="257.953846" y="75.991268" style="fill: #d62728; stroke: #d62728; stroke-linejoin: miter"/>
     <use xlink:href="#m478149b6b0" x="330.230769" y="128.192652" style="fill: #d62728; stroke: #d62728; stroke-linejoin: miter"/>
     <use xlink:href="#m478149b6b0" x="402.507692" y="151.757848" style="fill: #d62728; stroke: #d62728; stroke-linejoin: miter"/>
     <use xlink:href="#m478149b6b0" x="474.784615" y="178.902567" style="fill: #d62728; stroke: #d62728; stroke-linejoin: miter"/>
    </g>
   </g>
   <g id="patch_3">
    <path d="M 113.4 448.56 
L 113.4 60.48 
" style="fill: none; stroke: #000000; stroke-width: 0.8; stroke-linejoin: miter; stroke-linecap: square"/>
   </g>
   <g id="patch_4">
    <path d="M 583.2 448.56 
L 583.2 60.48 
" style="fill: none; stroke: #000000; stroke-width: 0.8; stroke-linejoin: miter; stroke-linecap: square"/>
   </g>
   <g id="patch_5">
    <path d="M 113.4 448.56 
L 583.2 448.56 
" style="fill: none; stroke: #000000; stroke-width: 0.8; stroke-linejoin: miter; stroke-linecap: square"/>
   </g>
   <g id="patch_6">
    <path d="M 113.4 60.48 
L 583.2 60.48 
" style="fill: none; stroke: #000000; stroke-width: 0.8; stroke-linejoin: miter; stroke-linecap: square"/>
   </g>
   <g id="legend_1">
    <g id="patch_7">
     <path d="M 508.9 127.1925 
L 576.2 127.1925 
Q 578.2 127.1925 578.2 125.1925 
L 578.2 67.48 
Q 578.2 65.48 576.2 65.48 
L 508.9 65.48 
Q 506.9 65.48 506.9 67.48 
L 506.9 125.1925 
Q 506.9 127.1925 508.9 127.1925 
z
" style="fill: #ffffff; opacity: 0.8; stroke: #cccccc; stroke-linejoin: miter"/>
    </g>
    <g id="line2d_45">
     <path d="M 510.9 73.578438 
L 520.9 73.578438 
L 530.9 73.578438 
" style="fill: none; stroke: #1f77b4; stroke-width: 3; stroke-linecap: square"/>
     <g>
      <use xlink:href="#me15b67c990" x="520.9" y="73.578438" style="fill: #1f77b4; stroke: #1f77b4"/>
     </g>
    </g>
    <g id="text_23">
     <!-- Beibei -->
     <g transform="translate(538.9 77.078438)scale(0.1 -0.1)">
      <defs>
       <path id="DejaVuSans-42" d="M 1259 2228 
L 1259 519 
L 2272 519 
Q 2781 519 3026 730 
Q 3272 941 3272 1375 
Q 3272 1813 3026 2020 
Q 2781 2228 2272 2228 
L 1259 2228 
z
M 1259 4147 
L 1259 2741 
L 2194 2741 
Q 2656 2741 2882 2914 
Q 3109 3088 3109 3444 
Q 3109 3797 2882 3972 
Q 2656 4147 2194 4147 
L 1259 4147 
z
M 628 4666 
L 2241 4666 
Q 2963 4666 3353 4366 
Q 3744 4066 3744 3513 
Q 3744 3084 3544 2831 
Q 3344 2578 2956 2516 
Q 3422 2416 3680 2098 
Q 3938 1781 3938 1306 
Q 3938 681 3513 340 
Q 3088 0 2303 0 
L 628 0 
L 628 4666 
z
" transform="scale(0.015625)"/>
       <path id="DejaVuSans-65" d="M 3597 1894 
L 3597 1613 
L 953 1613 
Q 991 1019 1311 708 
Q 1631 397 2203 397 
Q 2534 397 2845 478 
Q 3156 559 3463 722 
L 3463 178 
Q 3153 47 2828 -22 
Q 2503 -91 2169 -91 
Q 1331 -91 842 396 
Q 353 884 353 1716 
Q 353 2575 817 3079 
Q 1281 3584 2069 3584 
Q 2775 3584 3186 3129 
Q 3597 2675 3597 1894 
z
M 3022 2063 
Q 3016 2534 2758 2815 
Q 2500 3097 2075 3097 
Q 1594 3097 1305 2825 
Q 1016 2553 972 2059 
L 3022 2063 
z
" transform="scale(0.015625)"/>
       <path id="DejaVuSans-69" d="M 603 3500 
L 1178 3500 
L 1178 0 
L 603 0 
L 603 3500 
z
M 603 4863 
L 1178 4863 
L 1178 4134 
L 603 4134 
L 603 4863 
z
" transform="scale(0.015625)"/>
       <path id="DejaVuSans-62" d="M 3116 1747 
Q 3116 2381 2855 2742 
Q 2594 3103 2138 3103 
Q 1681 3103 1420 2742 
Q 1159 2381 1159 1747 
Q 1159 1113 1420 752 
Q 1681 391 2138 391 
Q 2594 391 2855 752 
Q 3116 1113 3116 1747 
z
M 1159 2969 
Q 1341 3281 1617 3432 
Q 1894 3584 2278 3584 
Q 2916 3584 3314 3078 
Q 3713 2572 3713 1747 
Q 3713 922 3314 415 
Q 2916 -91 2278 -91 
Q 1894 -91 1617 61 
Q 1341 213 1159 525 
L 1159 0 
L 581 0 
L 581 4863 
L 1159 4863 
L 1159 2969 
z
" transform="scale(0.015625)"/>
      </defs>
      <use xlink:href="#DejaVuSans-42"/>
      <use xlink:href="#DejaVuSans-65" x="68.603516"/>
      <use xlink:href="#DejaVuSans-69" x="130.126953"/>
      <use xlink:href="#DejaVuSans-62" x="157.910156"/>
      <use xlink:href="#DejaVuSans-65" x="221.386719"/>
      <use xlink:href="#DejaVuSans-69" x="282.910156"/>
     </g>
    </g>
    <g id="line2d_46">
     <path d="M 510.9 88.256563 
L 520.9 88.256563 
L 530.9 88.256563 
" style="fill: none; stroke: #ff7f0e; stroke-width: 3; stroke-linecap: square"/>
     <g>
      <use xlink:href="#md1093217a9" x="520.9" y="88.256563" style="fill: #ff7f0e; stroke: #ff7f0e; stroke-linejoin: bevel"/>
     </g>
    </g>
    <g id="text_24">
     <!-- Tmall -->
     <g transform="translate(538.9 91.756563)scale(0.1 -0.1)">
      <defs>
       <path id="DejaVuSans-54" d="M -19 4666 
L 3928 4666 
L 3928 4134 
L 2272 4134 
L 2272 0 
L 1638 0 
L 1638 4134 
L -19 4134 
L -19 4666 
z
" transform="scale(0.015625)"/>
       <path id="DejaVuSans-6d" d="M 3328 2828 
Q 3544 3216 3844 3400 
Q 4144 3584 4550 3584 
Q 5097 3584 5394 3201 
Q 5691 2819 5691 2113 
L 5691 0 
L 5113 0 
L 5113 2094 
Q 5113 2597 4934 2840 
Q 4756 3084 4391 3084 
Q 3944 3084 3684 2787 
Q 3425 2491 3425 1978 
L 3425 0 
L 2847 0 
L 2847 2094 
Q 2847 2600 2669 2842 
Q 2491 3084 2119 3084 
Q 1678 3084 1418 2786 
Q 1159 2488 1159 1978 
L 1159 0 
L 581 0 
L 581 3500 
L 1159 3500 
L 1159 2956 
Q 1356 3278 1631 3431 
Q 1906 3584 2284 3584 
Q 2666 3584 2933 3390 
Q 3200 3197 3328 2828 
z
" transform="scale(0.015625)"/>
       <path id="DejaVuSans-61" d="M 2194 1759 
Q 1497 1759 1228 1600 
Q 959 1441 959 1056 
Q 959 750 1161 570 
Q 1363 391 1709 391 
Q 2188 391 2477 730 
Q 2766 1069 2766 1631 
L 2766 1759 
L 2194 1759 
z
M 3341 1997 
L 3341 0 
L 2766 0 
L 2766 531 
Q 2569 213 2275 61 
Q 1981 -91 1556 -91 
Q 1019 -91 701 211 
Q 384 513 384 1019 
Q 384 1609 779 1909 
Q 1175 2209 1959 2209 
L 2766 2209 
L 2766 2266 
Q 2766 2663 2505 2880 
Q 2244 3097 1772 3097 
Q 1472 3097 1187 3025 
Q 903 2953 641 2809 
L 641 3341 
Q 956 3463 1253 3523 
Q 1550 3584 1831 3584 
Q 2591 3584 2966 3190 
Q 3341 2797 3341 1997 
z
" transform="scale(0.015625)"/>
       <path id="DejaVuSans-6c" d="M 603 4863 
L 1178 4863 
L 1178 0 
L 603 0 
L 603 4863 
z
" transform="scale(0.015625)"/>
      </defs>
      <use xlink:href="#DejaVuSans-54"/>
      <use xlink:href="#DejaVuSans-6d" x="61.083984"/>
      <use xlink:href="#DejaVuSans-61" x="158.496094"/>
      <use xlink:href="#DejaVuSans-6c" x="219.775391"/>
      <use xlink:href="#DejaVuSans-6c" x="247.558594"/>
     </g>
    </g>
    <g id="line2d_47">
     <path d="M 510.9 102.934688 
L 520.9 102.934688 
L 530.9 102.934688 
" style="fill: none; stroke: #2ca02c; stroke-width: 3; stroke-linecap: square"/>
     <g>
      <use xlink:href="#mb0371a6628" x="520.9" y="102.934688" style="fill: #2ca02c; stroke: #2ca02c; stroke-linejoin: miter"/>
     </g>
    </g>
    <g id="text_25">
     <!-- Taobao -->
     <g transform="translate(538.9 106.434688)scale(0.1 -0.1)">
      <defs>
       <path id="DejaVuSans-6f" d="M 1959 3097 
Q 1497 3097 1228 2736 
Q 959 2375 959 1747 
Q 959 1119 1226 758 
Q 1494 397 1959 397 
Q 2419 397 2687 759 
Q 2956 1122 2956 1747 
Q 2956 2369 2687 2733 
Q 2419 3097 1959 3097 
z
M 1959 3584 
Q 2709 3584 3137 3096 
Q 3566 2609 3566 1747 
Q 3566 888 3137 398 
Q 2709 -91 1959 -91 
Q 1206 -91 779 398 
Q 353 888 353 1747 
Q 353 2609 779 3096 
Q 1206 3584 1959 3584 
z
" transform="scale(0.015625)"/>
      </defs>
      <use xlink:href="#DejaVuSans-54"/>
      <use xlink:href="#DejaVuSans-61" x="44.583984"/>
      <use xlink:href="#DejaVuSans-6f" x="105.863281"/>
      <use xlink:href="#DejaVuSans-62" x="167.044922"/>
      <use xlink:href="#DejaVuSans-61" x="230.521484"/>
      <use xlink:href="#DejaVuSans-6f" x="291.800781"/>
     </g>
    </g>
    <g id="line2d_48">
     <path d="M 510.9 117.612813 
L 520.9 117.612813 
L 530.9 117.612813 
" style="fill: none; stroke: #d62728; stroke-width: 3; stroke-linecap: square"/>
     <g>
      <use xlink:href="#m478149b6b0" x="520.9" y="117.612813" style="fill: #d62728; stroke: #d62728; stroke-linejoin: miter"/>
     </g>
    </g>
    <g id="text_26">
     <!-- IJCAI -->
     <g transform="translate(538.9 121.112813)scale(0.1 -0.1)">
      <defs>
       <path id="DejaVuSans-49" d="M 628 4666 
L 1259 4666 
L 1259 0 
L 628 0 
L 628 4666 
z
" transform="scale(0.015625)"/>
       <path id="DejaVuSans-4a" d="M 628 4666 
L 1259 4666 
L 1259 325 
Q 1259 -519 939 -900 
Q 619 -1281 -91 -1281 
L -331 -1281 
L -331 -750 
L -134 -750 
Q 284 -750 456 -515 
Q 628 -281 628 325 
L 628 4666 
z
" transform="scale(0.015625)"/>
       <path id="DejaVuSans-43" d="M 4122 4306 
L 4122 3641 
Q 3803 3938 3442 4084 
Q 3081 4231 2675 4231 
Q 1875 4231 1450 3742 
Q 1025 3253 1025 2328 
Q 1025 1406 1450 917 
Q 1875 428 2675 428 
Q 3081 428 3442 575 
Q 3803 722 4122 1019 
L 4122 359 
Q 3791 134 3420 21 
Q 3050 -91 2638 -91 
Q 1578 -91 968 557 
Q 359 1206 359 2328 
Q 359 3453 968 4101 
Q 1578 4750 2638 4750 
Q 3056 4750 3426 4639 
Q 3797 4528 4122 4306 
z
" transform="scale(0.015625)"/>
       <path id="DejaVuSans-41" d="M 2188 4044 
L 1331 1722 
L 3047 1722 
L 2188 4044 
z
M 1831 4666 
L 2547 4666 
L 4325 0 
L 3669 0 
L 3244 1197 
L 1141 1197 
L 716 0 
L 50 0 
L 1831 4666 
z
" transform="scale(0.015625)"/>
      </defs>
      <use xlink:href="#DejaVuSans-49"/>
      <use xlink:href="#DejaVuSans-4a" x="29.492188"/>
      <use xlink:href="#DejaVuSans-43" x="58.984375"/>
      <use xlink:href="#DejaVuSans-41" x="128.808594"/>
      <use xlink:href="#DejaVuSans-49" x="197.216797"/>
     </g>
    </g>
   </g>
  </g>
 </g>
 <defs>
  <clipPath id="pf395d55cb8">
   <rect x="113.4" y="60.48" width="469.8" height="388.08"/>
  </clipPath>
 </defs>
</svg>
